<?xml version="1.0" encoding="utf-8"?>
<!-- Generator: Adobe Illustrator 22.1.0, SVG Export Plug-In . SVG Version: 6.00 Build 0)  -->
<svg version="1.1" id="Layer_1" xmlns="http://www.w3.org/2000/svg" xmlns:xlink="http://www.w3.org/1999/xlink" x="0px" y="0px"
	 viewBox="0 0 1109.7 240.4" style="enable-background:new 0 0 1109.7 240.4;" xml:space="preserve">
<style type="text/css">
	.st0{fill:#7946C6;}
	.st1{fill:none;}
	.st2{fill:#EA4335;}
	.st3{fill:#4285F4;}
	.st4{fill:#34A853;}
	.st5{fill:#FABB05;}
</style>
<polygon class="st0" points="143.1,4.8 112.5,4.8 112.5,117.3 0,4.8 0,148 143.2,148 143.1,147.9 "/>
<rect x="192.2" y="4.8" class="st0" width="143.6" height="30.8"/>
<rect x="192.2" y="117.6" class="st0" width="143.6" height="30.8"/>
<rect x="192.2" y="61.2" class="st0" width="143.6" height="30.8"/>
<path class="st0" d="M498.2,10.1c0,22.7-18.4,41.1-41.1,41.1S416,32.7,416,10.1v-6h-30.8v6c0,29.4,17.8,54.8,43.2,65.9
	c-25.4,11.1-43.2,36.5-43.2,65.9v6H416v-6c0-22.7,18.4-41.1,41.1-41.1s41.1,18.4,41.1,41.1v6H529v-6c0-29.4-17.8-54.8-43.2-65.9
	C511.2,64.9,529,39.5,529,10.1v-6h-30.8V10.1z"/>
<g>
	<g>
		<path class="st1" d="M812.9,48.1C812.8,48.1,812.8,48.1,812.9,48.1c12.2,2.5,22.9,9.5,30.2,19.1l-22.6,22.6
			c-3.1-6.8-9.9-11.5-17.8-11.5c-10.8,0-19.5,8.8-19.5,19.5c0,7.9,4.7,14.7,11.5,17.8l0,0c2.5,1.1,5.2,1.8,8,1.8h39v0l0,0h39
			c10.8,0,19.5-8.8,19.5-19.5c0-10.8-8.8-19.5-19.5-19.5v-3.9c0-12.3-5.7-23.2-14.5-30.4c-6.7-5.4-15.2-8.7-24.5-8.7
			C830.3,35.4,820,40.3,812.9,48.1z"/>
	</g>
	<g>
		<path class="st2" d="M812.8,48.1C812.8,48.1,812.8,48.1,812.8,48.1c7.2-7.8,17.5-12.8,28.9-12.8c9.3,0,17.8,3.3,24.5,8.7
			c0,0,0,0,0,0l22.1-22.1c0,0,0,0,0,0l0,0c-12.4-11-28.8-17.8-46.7-17.8c-32.4,0-59.7,22-67.8,51.9c0,0,0.1,0,0.1-0.1
			c8.2-5.6,18-8.9,28.6-8.9C806.1,47.1,809.5,47.5,812.8,48.1z"/>
	</g>
	<g>
		<path class="st3" d="M909.5,56.1c-3.6-13.4-11.1-25.2-21.2-34.2c0,0,0,0,0,0L866.2,44c0,0,0,0,0,0c8.9,7.2,14.5,18.1,14.5,30.4
			v3.9c10.8,0,19.5,8.8,19.5,19.5c0,10.8-8.8,19.5-19.5,19.5h-39l0,0v31.2l0,0h39.1c28,0,50.8-22.8,50.8-50.8
			C931.5,80.5,922.8,65.2,909.5,56.1z"/>
	</g>
	<g>
		<path class="st4" d="M841.7,117.4h-39c-2.9,0-5.6-0.6-8-1.8l0,0c0,0,0,0,0,0L772,138.3c8.5,6.5,19.1,10.3,30.7,10.3h39v0V117.4
			L841.7,117.4z"/>
	</g>
	<g>
		<path class="st5" d="M794.6,115.6c-6.8-3.1-11.5-9.9-11.5-17.8c0-10.8,8.8-19.5,19.5-19.5c7.9,0,14.7,4.7,17.8,11.5l22.6-22.6
			c-7.3-9.6-18-16.6-30.3-19.1c-3.3-0.7-6.7-1-10.1-1c-10.6,0-20.5,3.3-28.6,8.9c-13.3,9.2-22.1,24.5-22.1,41.9
			c0,16.5,7.9,31.2,20.1,40.4l0,0L794.6,115.6C794.6,115.6,794.6,115.6,794.6,115.6z"/>
	</g>
</g>
<rect x="633.7" y="53.1" class="st0" width="30.8" height="95.6"/>
<rect x="577.2" y="4.8" class="st0" width="143.8" height="34.9"/>
<g>
	<polygon class="st0" points="966.7,148.2 997.1,148.2 997.1,3.7 966.7,34.3 	"/>
</g>
<g>
	<circle class="st0" cx="1063.4" cy="106.2" r="46.3"/>
</g>
<g>
	
		<ellipse transform="matrix(0.9732 -0.2298 0.2298 0.9732 22.4434 245.0129)" class="st0" cx="1063.4" cy="26.1" rx="26.1" ry="26.1"/>
</g>
<path class="st0" d="M385.2,190.3h22.7v6.4h-16v8.3h14.4v6.4H392v8.3h16v6.4h-22.7V190.3z"/>
<path class="st0" d="M427.2,207.4l-10.8-17.1h8.4l7,11.7h0.4l6.9-11.7h8.4l-10.9,17.1l11.8,18.7h-8.4l-7.8-12.9h-0.4l-7.8,12.9h-8.4
	L427.2,207.4z"/>
<path class="st0" d="M464.4,196.7h-10v-6.4h26.8v6.4h-10v29.4h-6.8V196.7z"/>
<path class="st0" d="M490.3,190.3H513v6.4h-16v8.3h14.4v6.4H497v8.3h16v6.4h-22.7V190.3z"/>
<path class="st0" d="M523.7,190.3h7.9l14.4,24h0.4l-0.4-6.9v-17.1h6.7v35.8h-7.1l-15.2-25.4H530l0.4,6.9v18.5h-6.7V190.3z"/>
<path class="st0" d="M564.6,190.3h12.1c3.7,0,7,0.7,9.8,2.3c2.8,1.5,4.9,3.6,6.4,6.3c1.5,2.7,2.3,5.8,2.3,9.4s-0.8,6.7-2.3,9.4
	c-1.5,2.7-3.6,4.8-6.4,6.3c-2.8,1.5-6,2.3-9.8,2.3h-12.1V190.3z M576.4,219.7c3.9,0,6.8-1,8.9-3.1c2-2.1,3.1-4.9,3.1-8.4
	s-1-6.4-3.1-8.4c-2-2.1-5-3.1-8.9-3.1h-5.1v23H576.4z"/>
<path class="st0" d="M605.3,190.3H628v6.4h-16v8.3h14.4v6.4H612v8.3h16v6.4h-22.7V190.3z"/>
<path class="st0" d="M638.7,190.3h12.1c3.7,0,7,0.7,9.8,2.3c2.8,1.5,4.9,3.6,6.4,6.3c1.5,2.7,2.3,5.8,2.3,9.4s-0.8,6.7-2.3,9.4
	c-1.5,2.7-3.6,4.8-6.4,6.3c-2.8,1.5-6,2.3-9.8,2.3h-12.1V190.3z M650.5,219.7c3.9,0,6.8-1,8.9-3.1c2-2.1,3.1-4.9,3.1-8.4
	s-1-6.4-3.1-8.4c-2-2.1-5-3.1-8.9-3.1h-5.1v23H650.5z"/>
<path class="st0" d="M694.8,186.5h6v45.6h-6V186.5z"/>
<path class="st0" d="M733.5,196.7h-10v-6.4h26.8v6.4h-10v29.4h-6.8V196.7z"/>
<path class="st0" d="M766.2,190.3h7.8l13.5,35.8H780l-3-8.6h-13.7l-3,8.6h-7.5L766.2,190.3z M761.6,186.8l5.7-6.3h5.7l5.7,6.3v0.4
	h-6.3l-2-3h-0.6l-2,3h-6.3V186.8z M774.8,211.4l-3.2-9l-1.3-4.3h-0.4l-1.3,4.3l-3.2,9H774.8z"/>
<path class="st0" d="M796,190.3h13.1c2.3,0,4.4,0.5,6.2,1.4c1.8,1,3.2,2.3,4.2,4c1,1.7,1.5,3.7,1.5,5.8c0,2.3-0.7,4.3-2.2,6.1
	s-3.3,3.1-5.5,3.9l0,0.3l9.6,13.8v0.4h-7.8l-9.3-13.5h-3.2v13.5H796V190.3z M809,206.5c1.5,0,2.8-0.5,3.8-1.4c1-0.9,1.5-2.1,1.5-3.6
	c0-1.4-0.5-2.5-1.4-3.5c-0.9-1-2.2-1.5-3.7-1.5h-6.4v9.9H809z"/>
<path class="st0" d="M839.1,224.5c-2.9-1.6-5.2-3.9-6.9-6.7c-1.7-2.9-2.6-6-2.6-9.6s0.9-6.7,2.6-9.6c1.7-2.9,4-5.1,6.9-6.7
	c2.9-1.6,6-2.4,9.5-2.4c2.8,0,5.4,0.5,7.7,1.5c2.3,1,4.3,2.4,6,4.2l-4.7,4.6c-1.2-1.3-2.5-2.2-4-2.9c-1.5-0.6-3.1-0.9-5.1-0.9
	c-2.2,0-4.2,0.5-6.1,1.5s-3.3,2.5-4.4,4.4c-1.1,1.9-1.6,4-1.6,6.4c0,2.4,0.5,4.5,1.7,6.4c1.1,1.9,2.6,3.3,4.4,4.4
	c1.9,1,3.9,1.5,6.1,1.5c3.3,0,6.1-1,8.2-3c0.7-0.6,1.2-1.4,1.8-2.3c0.5-0.9,0.9-2,1.1-3.1h-11.3v-5.8H866c0.2,0.9,0.3,2,0.3,3.2
	c0,2.4-0.4,4.6-1.1,6.6c-0.7,2-1.8,3.8-3.3,5.4c-1.6,1.7-3.5,3.1-5.8,4c-2.3,0.9-4.8,1.4-7.6,1.4C845.2,226.9,842,226.1,839.1,224.5
	z"/>
<path class="st0" d="M882.5,225.1c-2.1-1.2-3.7-2.9-4.9-5.2c-1.2-2.3-1.7-5-1.7-8.1v-21.6h6.7v22c0,2.5,0.6,4.5,1.9,6
	c1.3,1.5,3,2.3,5.3,2.3c2.3,0,4.1-0.8,5.3-2.3c1.3-1.5,1.9-3.5,1.9-6v-22h6.7v21.6c0,3-0.6,5.6-1.7,7.9s-2.8,4-4.9,5.3
	c-2.1,1.3-4.6,1.9-7.4,1.9C887,226.9,884.6,226.3,882.5,225.1z"/>
<path class="st0" d="M930.5,190.3h8.7l9.5,25.2h0.4l9.5-25.2h8.8v35.8h-6.7v-17.7l0.4-6h-0.4l-9.1,23.6h-5.3l-9.2-23.6h-0.4l0.4,6
	v17.7h-6.7V190.3z"/>
<path class="st0" d="M985.2,225.1c-2.1-1.2-3.7-2.9-4.9-5.2c-1.2-2.3-1.7-5-1.7-8.1v-21.6h6.7v22c0,2.5,0.6,4.5,1.9,6
	c1.3,1.5,3,2.3,5.3,2.3c2.3,0,4.1-0.8,5.3-2.3c1.3-1.5,1.9-3.5,1.9-6v-22h6.7v21.6c0,3-0.6,5.6-1.7,7.9s-2.8,4-4.9,5.3
	c-2.1,1.3-4.6,1.9-7.4,1.9C989.7,226.9,987.3,226.3,985.2,225.1z"/>
<path class="st0" d="M1017.8,190.3h13.1c2.3,0,4.4,0.5,6.2,1.4c1.8,1,3.2,2.3,4.2,4c1,1.7,1.5,3.7,1.5,5.8c0,2.3-0.7,4.3-2.2,6.1
	s-3.3,3.1-5.5,3.9l0,0.3l9.6,13.8v0.4h-7.8l-9.3-13.5h-3.2v13.5h-6.8V190.3z M1030.8,206.5c1.5,0,2.8-0.5,3.8-1.4
	c1-0.9,1.5-2.1,1.5-3.6c0-1.4-0.5-2.5-1.4-3.5c-0.9-1-2.2-1.5-3.7-1.5h-6.4v9.9H1030.8z"/>
<path class="st0" d="M1053.2,190.3h22.7v6.4h-16v8.3h14.4v6.4H1060v8.3h16v6.4h-22.7V190.3z"/>
<path class="st0" d="M1089.1,224.3c-2.4-1.8-4.1-4.3-5.1-7.5l6.4-2.5c0.5,1.9,1.4,3.4,2.6,4.6c1.2,1.1,2.7,1.7,4.5,1.7
	c1.5,0,2.8-0.4,3.9-1.1c1.1-0.8,1.6-1.8,1.6-3.1c0-1.3-0.5-2.4-1.5-3.3c-1-0.9-2.8-1.8-5.4-2.7l-2.2-0.8c-2.3-0.8-4.3-2-5.9-3.7
	s-2.5-3.7-2.5-6.2c0-1.9,0.5-3.6,1.4-5.1c1-1.5,2.3-2.7,4.1-3.6c1.8-0.9,3.8-1.3,6-1.3c3.2,0,5.8,0.8,7.7,2.3
	c1.9,1.5,3.2,3.3,3.9,5.3l-6,2.5c-0.4-1.1-1-2-1.9-2.8c-0.9-0.8-2.1-1.1-3.5-1.1c-1.5,0-2.7,0.3-3.6,1c-1,0.7-1.4,1.6-1.4,2.7
	c0,1.1,0.5,2,1.4,2.7c0.9,0.7,2.4,1.5,4.5,2.2l2.3,0.8c3.1,1.1,5.5,2.5,7.1,4.2c1.6,1.8,2.5,4,2.5,6.9c0,2.3-0.6,4.3-1.8,5.9
	c-1.2,1.6-2.7,2.8-4.6,3.6c-1.9,0.8-3.8,1.2-5.8,1.2C1094.3,226.9,1091.5,226,1089.1,224.3z M1093.5,238.8l2.3-3.5
	c-0.7-0.3-1.2-0.7-1.6-1.3c-0.4-0.6-0.6-1.2-0.6-2c0-1,0.3-1.8,1-2.5c0.7-0.7,1.5-1.1,2.5-1.1c1,0,1.8,0.4,2.5,1.1
	c0.7,0.7,1,1.6,1,2.6c0,0.7-0.2,1.4-0.7,2.2l-4.1,6.1L1093.5,238.8z"/>
</svg>
