<?xml version="1.0" encoding="utf-8"?>
<!-- Generator: Adobe Illustrator 22.1.0, SVG Export Plug-In . SVG Version: 6.00 Build 0)  -->
<svg version="1.1" id="Layer_1" xmlns="http://www.w3.org/2000/svg" xmlns:xlink="http://www.w3.org/1999/xlink" x="0px" y="0px"
	 viewBox="0 0 318 94.1" style="enable-background:new 0 0 318 94.1;" xml:space="preserve">
<style type="text/css">
	.st0{fill:#010101;}
	.st1{fill:#78B1E0;}
	.st2{fill:url(#SVGID_1_);}
	.st3{fill:none;stroke:url(#SVGID_2_);stroke-width:0.7784;stroke-linecap:round;stroke-linejoin:round;stroke-miterlimit:10;}
	.st4{fill:none;stroke:#EA4637;stroke-width:2.5947;stroke-linecap:round;stroke-linejoin:round;stroke-miterlimit:10;}
	.st5{fill:none;stroke:#557EBF;stroke-width:2.5947;stroke-linecap:round;stroke-linejoin:round;stroke-miterlimit:10;}
	.st6{fill:none;stroke:#36A852;stroke-width:2.5947;stroke-linecap:round;stroke-linejoin:round;stroke-miterlimit:10;}
	.st7{fill:none;stroke:#F8BC16;stroke-width:2.5947;stroke-linecap:round;stroke-linejoin:round;stroke-miterlimit:10;}
	.st8{fill:#939292;}
</style>
<g>
	<g>
		<g>
			<path class="st0" d="M196.3,59.9l0-20.8l-10.2,17.5h-0.9l-10.2-17.5v20.7h-1.7V35.6h1.5l10.8,18.8l10.8-18.8h1.5l0,24.3H196.3z"
				/>
			<path class="st0" d="M211.5,49.6v-14h1.8v13.9c0,6.1,2.9,8.9,8,8.9s7.9-2.8,7.9-8.9V35.6h1.8v14c0,6.9-3.7,10.5-9.7,10.5
				C215.1,60,211.5,56.5,211.5,49.6z"/>
			<path class="st0" d="M261.2,59.9l-5.8-8.1c-0.8,0.1-1.5,0.2-2.4,0.2h-6.9v7.9h-1.8V35.6h8.7c6.1,0,9.8,3,9.8,8.2
				c0,3.8-2.1,6.5-5.7,7.6l6.1,8.5H261.2z M253.1,50.4c5.2,0,8-2.4,8-6.6c0-4.2-2.8-6.6-8-6.6h-6.9v13.2H253.1z"/>
			<path class="st0" d="M291.2,58.3v1.6h-16.7V35.6h16.2v1.6h-14.5v9.6h12.9v1.6h-12.9v9.9H291.2z"/>
			<path class="st0" d="M300.4,56.7l0.8-1.3c1.7,1.7,4.7,3,8,3c4.9,0,7-2.1,7-4.7c0-7.3-15.1-2.9-15.1-11.9c0-3.4,2.6-6.4,8.6-6.4
				c2.7,0,5.4,0.8,7.3,2.2l-0.7,1.4c-2-1.4-4.5-2-6.7-2c-4.7,0-6.8,2.2-6.8,4.9c0,7.3,15.1,3,15.1,11.8c0,3.4-2.7,6.4-8.7,6.4
				C305.7,60,302.2,58.7,300.4,56.7z"/>
		</g>
		<g>
			<path class="st0" d="M108.9,35.6h8.2v24.3h-8.2V35.6z"/>
			<path class="st0" d="M131.5,41.9h-7.1v-6.3h22.4v6.3h-7.1v17.9h-8.2V41.9z"/>
		</g>
	</g>
	<g>
		<polygon class="st1" points="26.9,65.3 27.1,66.3 30.2,67.8 36.6,68.8 42.5,69.1 51.7,68.8 58.7,67.5 60.9,66.2 60.9,65.2 
			43.9,46.4 		"/>
		<linearGradient id="SVGID_1_" gradientUnits="userSpaceOnUse" x1="43.9201" y1="17.7293" x2="43.9201" y2="65.1687">
			<stop  offset="0" style="stop-color:#78B1E0"/>
			<stop  offset="1" style="stop-color:#C2D8D2"/>
		</linearGradient>
		<path class="st2" d="M52.6,48.1c-5.3-13.2-7.2-29.7-7.2-29.7s-0.2-0.7-1.4-0.6c-1.2,0-1.4,0.6-1.4,0.6s-1.9,16.5-7.2,29.7
			c-3.8,9.4-8.9,17.1-8.9,17.1s4.8-3,17.4-3s17.4,3,17.4,3S56.4,57.5,52.6,48.1z"/>
		
			<linearGradient id="SVGID_2_" gradientUnits="userSpaceOnUse" x1="3990.499" y1="-3229.3171" x2="3990.499" y2="-3221.574" gradientTransform="matrix(-1 0 0 -1 4034.4106 -3159.8213)">
			<stop  offset="0" style="stop-color:#78B1E0"/>
			<stop  offset="1" style="stop-color:#C2D8D2"/>
		</linearGradient>
		<path class="st3" d="M26.9,65.9c0,0,0.5,3.2,17.1,3.2S61,65.9,61,65.9c0.1-0.2,0-0.6,0-0.6s-0.5-3.2-17.1-3.2s-17.1,3.2-17.1,3.2
			C26.8,65.5,26.9,65.9,26.9,65.9z"/>
		<line class="st4" x1="69.8" y1="5.8" x2="66.3" y2="32.4"/>
		<line class="st5" x1="30.2" y1="91.8" x2="77.6" y2="78.6"/>
		<line class="st6" x1="26.6" y1="2.3" x2="69.8" y2="5.8"/>
		<line class="st7" x1="26.6" y1="2.3" x2="6.3" y2="41.1"/>
		<line class="st4" x1="77.6" y1="78.6" x2="86.5" y2="42.7"/>
		<line class="st7" x1="69.8" y1="5.8" x2="86.5" y2="42.7"/>
		<line class="st6" x1="66.3" y1="32.4" x2="77.6" y2="78.6"/>
		<line class="st6" x1="6.3" y1="41.1" x2="2.3" y2="69.3"/>
		<line class="st4" x1="2.3" y1="69.3" x2="30.2" y2="91.8"/>
		<line class="st7" x1="6.3" y1="41.1" x2="30.2" y2="91.8"/>
		<line class="st5" x1="6.3" y1="41.1" x2="66.3" y2="32.4"/>
		<circle class="st8" cx="26.6" cy="2.3" r="2.3"/>
		<circle class="st8" cx="6.3" cy="41.1" r="2.3"/>
		<circle class="st8" cx="30.2" cy="91.8" r="2.3"/>
		<circle class="st8" cx="2.3" cy="69.3" r="2.3"/>
		<circle class="st8" cx="69.8" cy="5.8" r="2.3"/>
		<circle class="st8" cx="66.3" cy="32.4" r="2.3"/>
		<circle class="st8" cx="86.5" cy="42.7" r="2.3"/>
		<circle class="st8" cx="77.6" cy="78.6" r="2.3"/>
	</g>
</g>
</svg>
